# xmcd
#
# Track frame offsets:
#   150
#   15001
#   31753
#   46628
#   64414
#   78203
#   93591
#   108240
#   125287
#   139378
#   152670
#
# Disc length: 2230 seconds
#
# Revision: 0
# Processed by: cddbd v1.4PL0 Copyright (c) Steve Scherf et al.
# Submitted via: uFREEDB 1.6.0
#
DISCID=7a08b40b
DTITLE=Erann DD - Still Believing
DYEAR=2000
DGENRE=R and B
TTITLE0=I Wanna Wake Up With You
TTITLE1=Still Believing
TTITLE2=I Can't Go For That
TTITLE3=Send Her My Love
TTITLE4=Tears In Love
TTITLE5=The Rose (Maybe Baby)
TTITLE6=Kingston Soul, Baby
TTITLE7=This Is Alright
TTITLE8=Lulee
TTITLE9=Stay
TTITLE10=Much Much Better
EXTD=
EXTT0=
EXTT1=
EXTT2=
EXTT3=
EXTT4=
EXTT5=
EXTT6=
EXTT7=
EXTT8=
EXTT9=
EXTT10=
PLAYORDER=
